<svg width="552" height="518" viewBox="0 0 552 518" fill="none" xmlns="http://www.w3.org/2000/svg">
<path d="M63.1979 420.104C63.1979 420.104 38.0499 427 21.0499 416C4.04993 405 12.0499 378 36.0499 378C60.0499 378 62.4145 397 62.4145 397C62.4145 397 62.8386 406.8 63.1979 420.104ZM63.1979 420.104C63.5134 431.788 63.7789 446.176 63.6632 459M63.6632 459C63.5248 474.323 62.8421 487.416 61.0499 491C56.0499 501 35.2166 514 21.0499 497C6.88325 480 21.0499 459 45.0499 459H63.6632ZM63.6632 459H100.05M100.05 459H126.05C126.05 459 153.05 472 140.05 497C133.924 508.78 100.05 507.402 100.05 491V459ZM100.05 459V346H45.0499V238M62.4145 327L61.0499 166M205.05 466H484.05M62.0499 421H183.05V484H305.05M118.05 312V0M62.0499 321V67M220.05 406H551.05" stroke="#C50004" stroke-width="24"/>
</svg>
