<svg width="996" height="122" viewBox="0 0 996 122" fill="none" xmlns="http://www.w3.org/2000/svg">
<path d="M50.3404 56.8681L69.3404 44.4722L50.3404 31.25L50.3344 31.2551M50.3344 31.2551L34.5259 44.5912M50.3344 31.2551L69.3404 44.4722M50.3344 31.2551L34.8788 20.5069L69.3404 1.5H272.34M34.5259 44.5912L18.7141 57.9301M34.5259 44.5912L50.3404 56.8681M34.5259 44.5912L17.3404 31.25L2.34036 44.4722L18.7141 57.9301M18.7141 57.9301L2.34036 71.7431L17.3404 84.1389L34.8788 71.7431M18.7141 57.9301L35.1742 71.4589M34.8788 71.7431L52.1096 85.3785M34.8788 71.7431L35.1742 71.4589M52.1096 85.3785L69.3404 71.7431L50.3404 56.8681M52.1096 85.3785L35.1742 71.4589M52.1096 85.3785L34.8788 99.0139L69.3404 120.5H272.34M35.1742 71.4589L50.3404 56.8681M52.3404 31.25L77.3404 15.5486H270.34M52.3404 84.9653L76.3404 104.799H278.34M945.34 56.8681L926.34 44.4722L945.34 31.25L945.346 31.2551M945.346 31.2551L961.155 44.5912M945.346 31.2551L926.34 44.4722M945.346 31.2551L960.802 20.5069L926.34 1.5H723.34M961.155 44.5912L976.967 57.9301M961.155 44.5912L945.34 56.8681M961.155 44.5912L978.34 31.25L993.34 44.4722L976.967 57.9301M976.967 57.9301L993.34 71.7431L978.34 84.1389L960.802 71.7431M976.967 57.9301L960.507 71.4589M960.802 71.7431L943.571 85.3785M960.802 71.7431L960.507 71.4589M943.571 85.3785L926.34 71.7431L945.34 56.8681M943.571 85.3785L960.507 71.4589M943.571 85.3785L960.802 99.0139L926.34 120.5H723.34M960.507 71.4589L945.34 56.8681M943.34 31.25L918.34 15.5486H725.34M943.34 84.9653L919.34 104.799H717.34M269.34 1.5H767.34M255.34 15.5486H762.34M255.34 104.799H753.34M245.34 120.5H752.34" stroke="#C50004" stroke-width="3"/>
</svg>
